<svg xmlns="http://www.w3.org/2000/svg" viewBox="0 0 1920 1080" preserveAspectRatio="none">
  <defs>
    <linearGradient id="sky" x1="0" y1="0" x2="0" y2="1">
      <stop offset="0%" stop-color="#0a2050"/>
      <stop offset="100%" stop-color="#0d2a65"/>
    </linearGradient>
  </defs>
  <rect width="1920" height="1080" fill="url(#sky)"/>
  <path d="M0,700 C200,650 400,720 640,690 C820,665 980,720 1200,680 C1380,650 1600,710 1920,680 L1920,1080 L0,1080 Z" fill="#1a4080" opacity="0.55"/>
  <path d="M0,740 C250,695 480,765 720,730 C920,700 1100,760 1320,725 C1520,695 1720,750 1920,720 L1920,1080 L0,1080 Z" fill="#2458a0" opacity="0.50"/>
  <path d="M0,790 C280,745 520,810 760,775 C960,745 1140,808 1380,770 C1580,740 1760,800 1920,770 L1920,1080 L0,1080 Z" fill="#3a72c0" opacity="0.45"/>
  <path d="M0,845 C300,800 560,860 800,825 C1000,795 1180,858 1420,818 C1620,785 1800,848 1920,820 L1920,1080 L0,1080 Z" fill="#5a95d8" opacity="0.40"/>
  <path d="M0,900 C320,858 580,918 840,880 C1040,848 1220,912 1460,870 C1660,835 1840,900 1920,875 L1920,1080 L0,1080 Z" fill="#7ab5e8" opacity="0.35"/>
  <path d="M0,960 C280,930 540,975 800,952 C1000,932 1200,972 1440,945 C1640,920 1820,965 1920,942 L1920,1080 L0,1080 Z" fill="#a0d0f5" opacity="0.25"/>
</svg>
